<?xml version="1.0" encoding="UTF-8"?>
<svg id="Calque_1" data-name="Calque 1" xmlns="http://www.w3.org/2000/svg" viewBox="0 0 100 30">
  <defs>
    <style>
      .cls-1 {
        fill: #333;
      }
    </style>
  </defs>
  <path class="cls-1" d="M21.22,20.6c-.11,0-.21-.03-.28-.08-.07-.06-.12-.15-.15-.26l-1.01-3.47c-.02-.1-.03-.18,0-.25.02-.07.07-.13.13-.17s.13-.06.22-.06c.1,0,.18.02.25.07.07.05.11.14.15.26l.89,3.22h-.26l1.97-3.29c.06-.1.12-.16.18-.2.07-.04.15-.07.25-.07s.19.02.25.07c.06.05.1.11.1.19,0,.08-.01.16-.07.24l-2.16,3.51c-.06.1-.12.17-.19.21-.07.04-.16.07-.26.07ZM24.74,20.62c-.29,0-.55-.05-.76-.16-.21-.11-.37-.26-.48-.46-.11-.2-.17-.44-.17-.7s.04-.5.13-.72c.09-.21.2-.39.36-.55.16-.15.33-.27.53-.35.2-.08.42-.12.65-.12.29,0,.55.05.75.16.21.11.37.26.48.46.11.2.17.43.17.7s-.04.5-.13.72c-.09.21-.21.39-.36.55-.15.15-.33.27-.53.35-.2.08-.42.12-.65.12ZM24.76,20.04c.19,0,.35-.05.47-.16.13-.1.23-.25.3-.43.07-.18.1-.38.1-.6,0-.24-.06-.42-.18-.54-.11-.13-.27-.19-.48-.19-.18,0-.34.05-.47.16-.13.1-.23.25-.3.43-.07.18-.1.38-.1.6,0,.24.06.42.17.55.12.12.28.19.48.19ZM27.19,21.69c-.1,0-.17-.02-.23-.07-.05-.04-.08-.1-.09-.17,0-.07.02-.14.07-.22l.58-.94-.05.31-.71-2.52c-.03-.1-.03-.19-.01-.26.02-.08.06-.14.12-.19.07-.04.14-.07.24-.07.11,0,.19.03.24.08.06.05.1.14.13.26l.49,1.99h-.19l1.2-2.06c.06-.1.12-.16.18-.2.06-.04.14-.07.24-.07s.17.02.23.07c.06.04.09.1.09.17,0,.07-.01.14-.06.23l-2.06,3.38c-.06.1-.12.16-.18.2-.06.04-.14.07-.24.07ZM30.64,20.62c-.18,0-.35-.04-.5-.12-.15-.08-.27-.19-.37-.33-.09-.14-.13-.29-.13-.46,0-.21.06-.38.18-.51.12-.13.3-.23.55-.29.25-.06.57-.1.96-.1h.49l-.07.43h-.39c-.24,0-.43.01-.58.04-.14.02-.25.07-.31.13-.06.06-.09.14-.09.25,0,.14.05.25.14.32.1.08.22.11.36.11.13,0,.25-.03.36-.08.11-.06.2-.13.27-.23.07-.1.12-.23.14-.37l.12-.72c.03-.19,0-.33-.09-.43-.09-.1-.25-.15-.48-.15-.13,0-.27.01-.39.04-.13.02-.26.07-.39.13-.08.03-.15.04-.21.03-.06-.01-.11-.04-.15-.08-.04-.04-.06-.09-.06-.15,0-.06.01-.12.05-.17.04-.06.11-.1.2-.14.17-.08.35-.13.53-.16.19-.04.36-.05.53-.05.32,0,.58.06.76.17.18.12.31.27.37.48.07.2.08.43.04.69l-.21,1.34c-.02.12-.06.22-.13.28-.07.06-.16.09-.28.09-.11,0-.19-.03-.25-.1-.05-.07-.07-.18-.05-.31l.06-.38.04.12c-.06.16-.14.29-.25.39-.1.1-.22.17-.35.22-.13.05-.26.07-.4.07ZM34.24,21.7c-.25,0-.48-.03-.7-.08-.22-.05-.41-.12-.57-.22-.07-.04-.12-.09-.14-.15-.02-.06-.03-.11-.02-.17.01-.06.04-.11.08-.15.04-.04.09-.07.15-.08.06,0,.13,0,.2.05.13.07.27.12.42.16.15.04.31.07.47.07.25,0,.44-.05.59-.16.15-.11.25-.28.29-.52l.1-.57h.05c-.1.2-.24.35-.43.46s-.4.16-.63.16-.45-.05-.63-.14c-.18-.1-.32-.23-.42-.42-.1-.18-.15-.4-.15-.65,0-.23.03-.45.1-.66.07-.21.18-.39.31-.55.13-.16.3-.29.48-.38s.4-.14.63-.14.44.05.62.16c.18.11.3.27.37.48l-.07.17.07-.44c.02-.12.07-.21.14-.27.07-.06.17-.09.29-.09s.2.04.25.11c.05.08.07.18.05.32l-.39,2.39c-.07.42-.22.74-.48.96-.25.22-.6.34-1.04.34ZM34.34,19.91c.19,0,.35-.05.48-.15.13-.1.24-.24.31-.41.07-.17.1-.36.1-.55,0-.21-.06-.37-.18-.49-.11-.12-.28-.18-.5-.18-.19,0-.35.05-.48.16-.13.1-.23.23-.3.4-.07.17-.1.35-.1.55,0,.21.06.38.17.5.12.12.28.18.5.18ZM37.95,20.62c-.3,0-.57-.05-.79-.16-.22-.11-.39-.27-.52-.47-.12-.2-.18-.44-.18-.7,0-.33.07-.62.21-.88.14-.26.34-.47.59-.62.25-.15.54-.23.86-.23.25,0,.46.04.63.13.17.08.3.2.4.34.1.14.16.3.2.48.03.18.04.36.02.55,0,.08-.03.14-.07.16-.04.02-.09.04-.15.04h-2.06l.06-.43h1.72l-.1.09c.02-.16.02-.3-.02-.43-.04-.13-.11-.23-.21-.31-.1-.08-.24-.11-.41-.11s-.33.04-.45.12c-.12.08-.22.18-.29.31-.07.12-.12.26-.14.4l-.03.19c-.05.29,0,.53.15.7.15.17.37.26.67.26.12,0,.25-.01.38-.04.13-.03.25-.07.36-.13.08-.04.14-.06.2-.05.06,0,.11.03.14.07.04.04.06.08.07.14,0,.05,0,.11-.03.17-.02.06-.07.11-.13.15-.14.09-.31.16-.51.2-.2.04-.38.07-.54.07ZM39.8,20.56c-.09,0-.15-.02-.21-.05-.05-.04-.09-.08-.11-.14-.02-.06-.02-.12,0-.18.02-.07.06-.13.12-.2l1.89-1.99.02.18h-1.39c-.1,0-.17-.02-.23-.06-.05-.04-.08-.1-.08-.17,0-.1.03-.18.09-.24.07-.06.15-.09.25-.09h1.77c.09,0,.16.02.21.05.06.03.09.08.11.13.02.06.02.12,0,.19-.02.07-.06.14-.13.2l-1.9,1.99-.02-.2h1.48c.2,0,.31.08.31.23,0,.1-.03.18-.09.24-.06.06-.14.09-.25.09h-1.84ZM44.4,20.6c-.12,0-.21-.04-.26-.11-.05-.08-.07-.19-.05-.32l.33-1.99h-.26c-.1,0-.17-.02-.23-.06-.05-.04-.07-.1-.07-.17,0-.1.03-.19.09-.25.07-.06.15-.09.26-.09h.38l-.1.08.04-.22c.06-.35.2-.62.42-.82s.54-.32.97-.34h.2c.08-.02.14,0,.19.04.04.03.07.08.09.13.02.05.02.11,0,.16-.01.06-.04.1-.08.14-.04.04-.09.06-.15.07h-.17c-.21.03-.37.08-.48.18-.11.1-.18.24-.21.43l-.04.22-.06-.06h.55c.1,0,.17.02.22.06.05.04.08.09.08.16,0,.11-.03.19-.1.25-.06.06-.15.09-.25.09h-.52l-.33,2.05c-.05.25-.19.37-.45.37ZM46.99,20.62c-.21,0-.39-.04-.55-.13-.15-.09-.26-.22-.33-.41-.06-.18-.07-.42-.02-.7l.24-1.46c.02-.12.07-.21.13-.26.07-.06.16-.08.28-.08.13,0,.22.04.28.11.06.07.08.17.06.31l-.22,1.38c-.03.22-.02.39.05.49.07.11.2.16.38.16.23,0,.41-.07.56-.22.14-.15.23-.35.28-.61l.2-1.28c.02-.12.07-.21.13-.26.07-.06.16-.08.28-.08.13,0,.22.04.28.11.06.07.08.18.06.31l-.36,2.26c-.04.24-.18.36-.42.36-.12,0-.21-.03-.26-.1-.06-.06-.08-.16-.06-.29l.06-.43.04.16c-.11.22-.26.39-.45.51-.19.11-.4.17-.65.17ZM49.7,20.6c-.12,0-.21-.04-.26-.11-.05-.08-.07-.19-.05-.32l.36-2.22c.02-.12.07-.22.14-.28.08-.06.18-.1.3-.1.11,0,.2.03.25.1.05.07.07.17.05.31l-.06.39-.02-.15c.1-.21.25-.38.44-.49.19-.11.42-.17.67-.17.22,0,.4.04.55.13.15.09.26.22.32.41.07.18.08.41.03.7l-.23,1.43c-.02.12-.06.22-.14.28-.07.06-.17.09-.3.09-.12,0-.21-.04-.26-.11-.06-.08-.08-.19-.06-.32l.22-1.35c.04-.22.02-.39-.06-.49-.07-.11-.2-.17-.39-.17-.24,0-.44.07-.58.22-.14.15-.24.35-.28.61l-.2,1.25c-.04.25-.18.37-.44.37ZM53.15,20.6c-.12,0-.21-.04-.26-.11-.05-.08-.07-.18-.05-.32l.57-3.54c.02-.12.07-.21.14-.27.07-.06.17-.09.3-.09.12,0,.2.04.26.12.06.08.08.18.06.32l-.35,2.15h.01l1.2-1.08c.08-.08.15-.13.21-.17.07-.04.14-.05.23-.05.1,0,.18.03.22.08.05.06.07.13.06.21,0,.08-.05.16-.13.23l-1.2,1.11v-.32l.98,1.2c.07.08.09.16.09.25,0,.08-.03.15-.09.2-.06.05-.13.08-.23.08-.11,0-.19-.02-.25-.07-.06-.05-.13-.12-.21-.22l-.92-1.11h-.01l-.17,1.03c-.04.24-.18.36-.44.36ZM56.41,21.69c-.1,0-.17-.02-.23-.07-.05-.04-.08-.1-.09-.17,0-.07.02-.14.07-.22l.58-.94-.05.31-.71-2.52c-.03-.1-.03-.19-.01-.26.02-.08.06-.14.12-.19.07-.04.15-.07.24-.07.11,0,.19.03.24.08.06.05.1.14.13.26l.49,1.99h-.19l1.2-2.06c.06-.1.12-.16.18-.2.06-.04.14-.07.24-.07s.17.02.23.07c.06.04.09.1.09.17,0,.07-.01.14-.06.23l-2.06,3.38c-.06.1-.12.16-.18.2-.06.04-.14.07-.24.07ZM58.99,21.21c-.06.06-.12.08-.18.08-.06,0-.11-.01-.15-.05-.04-.04-.06-.08-.06-.14s.03-.11.09-.17c.11-.1.18-.19.23-.28.05-.08.08-.18.1-.28l.05.2c-.14,0-.26-.04-.35-.12-.09-.08-.13-.19-.13-.33,0-.13.04-.23.12-.31.08-.08.19-.13.33-.13s.25.05.33.14c.07.09.11.2.11.34,0,.13-.02.26-.06.38-.03.12-.09.23-.16.34-.07.11-.16.21-.27.32ZM61.71,21.69c-.12,0-.21-.04-.26-.11-.06-.08-.08-.18-.06-.32l.53-3.3c.02-.13.07-.22.14-.29.07-.06.17-.1.3-.1.12,0,.2.04.25.11.05.08.07.18.05.32l-.06.34v-.18c.1-.2.25-.35.43-.45.18-.1.39-.16.63-.16s.43.05.59.16c.17.1.3.25.4.44.09.19.14.41.14.67,0,.33-.06.64-.18.91-.12.27-.29.48-.52.64-.23.16-.5.24-.81.24-.23,0-.43-.05-.61-.16-.18-.11-.3-.27-.37-.48h.06l-.22,1.36c-.02.12-.07.21-.13.27-.07.06-.17.08-.3.08ZM63.16,20.04c.19,0,.35-.05.47-.16.13-.1.23-.25.3-.43.07-.18.1-.38.1-.6,0-.24-.06-.42-.18-.54-.11-.13-.27-.19-.48-.19-.18,0-.34.05-.47.16-.13.1-.23.25-.3.43-.07.18-.1.38-.1.6,0,.24.06.42.17.55.12.12.28.19.48.19ZM66.07,20.62c-.18,0-.35-.04-.5-.12-.15-.08-.27-.19-.37-.33-.09-.14-.13-.29-.13-.46,0-.21.06-.38.18-.51.12-.13.3-.23.55-.29.25-.06.57-.1.96-.1h.49l-.07.43h-.39c-.24,0-.43.01-.58.04-.14.02-.25.07-.31.13-.06.06-.09.14-.09.25,0,.14.05.25.14.32.1.08.22.11.36.11.13,0,.25-.03.36-.08.11-.06.2-.13.27-.23.07-.1.12-.23.14-.37l.12-.72c.03-.19,0-.33-.09-.43-.09-.1-.25-.15-.48-.15-.13,0-.27.01-.39.04-.13.02-.26.07-.39.13-.08.03-.15.04-.21.03s-.11-.04-.15-.08c-.04-.04-.06-.09-.06-.15,0-.06.01-.12.05-.17.04-.06.11-.1.2-.14.17-.08.35-.13.53-.16.19-.04.36-.05.53-.05.32,0,.58.06.76.17.18.12.31.27.37.48.07.2.08.43.04.69l-.21,1.34c-.02.12-.06.22-.13.28-.07.06-.16.09-.28.09-.11,0-.19-.03-.25-.1-.05-.07-.07-.18-.05-.31l.06-.38.04.12c-.06.16-.14.29-.25.39-.1.1-.22.17-.35.22-.13.05-.26.07-.4.07ZM68.83,21.69c-.1,0-.17-.02-.23-.07-.05-.04-.08-.1-.09-.17,0-.07.02-.14.07-.22l.58-.94-.05.31-.71-2.52c-.03-.1-.03-.19-.01-.26.02-.08.06-.14.12-.19.07-.04.15-.07.24-.07.11,0,.19.03.24.08.06.05.1.14.13.26l.49,1.99h-.19l1.2-2.06c.06-.1.12-.16.18-.2.06-.04.14-.07.24-.07s.17.02.23.07c.06.04.09.1.09.17,0,.07-.01.14-.06.23l-2.06,3.38c-.06.1-.12.16-.18.2-.06.04-.14.07-.24.07ZM72.81,20.62c-.3,0-.57-.05-.79-.16-.22-.11-.39-.27-.52-.47-.12-.2-.18-.44-.18-.7,0-.33.07-.62.21-.88.14-.26.34-.47.59-.62.25-.15.54-.23.86-.23.25,0,.46.04.63.13.17.08.3.2.4.34.1.14.16.3.2.48.03.18.04.36.02.55,0,.08-.03.14-.07.16-.04.02-.09.04-.15.04h-2.06l.06-.43h1.72l-.1.09c.02-.16.02-.3-.02-.43-.04-.13-.11-.23-.21-.31-.1-.08-.24-.11-.41-.11s-.33.04-.45.12c-.12.08-.22.18-.29.31-.07.12-.12.26-.14.4l-.03.19c-.05.29,0,.53.15.7.15.17.37.26.67.26.12,0,.25-.01.38-.04.13-.03.25-.07.36-.13.08-.04.14-.06.2-.05.06,0,.11.03.14.07.04.04.06.08.07.14,0,.05,0,.11-.03.17-.02.06-.07.11-.13.15-.14.09-.31.16-.51.2-.2.04-.38.07-.54.07ZM74.66,20.56c-.09,0-.16-.02-.21-.05-.05-.04-.09-.08-.11-.14-.02-.06-.02-.12,0-.18.02-.07.06-.13.12-.2l1.89-1.99.02.18h-1.39c-.1,0-.17-.02-.23-.06-.05-.04-.08-.1-.08-.17,0-.1.03-.18.09-.24.07-.06.15-.09.25-.09h1.77c.09,0,.15.02.21.05.06.03.09.08.11.13.02.06.02.12,0,.19-.02.07-.06.14-.13.2l-1.9,1.99-.02-.2h1.48c.2,0,.31.08.31.23,0,.1-.03.18-.09.24-.06.06-.15.09-.25.09h-1.84ZM80.24,20.62c-.3,0-.57-.05-.79-.16-.22-.11-.39-.27-.52-.47-.12-.2-.18-.44-.18-.7,0-.33.07-.62.21-.88.14-.26.34-.47.59-.62.25-.15.54-.23.86-.23.25,0,.46.04.63.13s.3.2.4.34c.1.14.16.3.2.48.03.18.04.36.02.55,0,.08-.03.14-.07.16-.04.02-.09.04-.15.04h-2.06l.06-.43h1.72l-.1.09c.02-.16.02-.3-.02-.43-.04-.13-.11-.23-.21-.31-.1-.08-.24-.11-.41-.11s-.33.04-.45.12c-.12.08-.22.18-.29.31-.07.12-.12.26-.14.4l-.03.19c-.05.29,0,.53.15.7.15.17.37.26.67.26.12,0,.25-.01.38-.04.13-.03.25-.07.36-.13.08-.04.14-.06.2-.05.06,0,.11.03.14.07.04.04.06.08.07.14,0,.05,0,.11-.03.17-.02.06-.07.11-.13.15-.14.09-.31.16-.51.2-.2.04-.38.07-.54.07ZM82.89,20.62c-.18,0-.35-.04-.5-.12-.15-.08-.27-.19-.37-.33-.09-.14-.13-.29-.13-.46,0-.21.06-.38.18-.51.12-.13.3-.23.55-.29.25-.06.57-.1.96-.1h.49l-.07.43h-.39c-.24,0-.43.01-.58.04s-.25.07-.31.13c-.06.06-.09.14-.09.25,0,.14.05.25.14.32.1.08.22.11.36.11.13,0,.25-.03.36-.08.11-.06.2-.13.27-.23.07-.1.12-.23.14-.37l.12-.72c.03-.19,0-.33-.09-.43-.09-.1-.25-.15-.48-.15-.13,0-.27.01-.39.04-.13.02-.26.07-.39.13-.08.03-.15.04-.21.03s-.11-.04-.15-.08c-.04-.04-.06-.09-.06-.15,0-.06.01-.12.05-.17.04-.06.11-.1.2-.14.17-.08.35-.13.53-.16.19-.04.36-.05.53-.05.32,0,.58.06.76.17.18.12.31.27.37.48.07.2.08.43.04.69l-.21,1.34c-.02.12-.06.22-.13.28-.07.06-.16.09-.28.09-.11,0-.19-.03-.25-.1-.05-.07-.07-.18-.05-.31l.06-.38.04.12c-.06.16-.14.29-.25.39-.1.1-.22.17-.35.22-.13.05-.26.07-.4.07ZM86.3,20.62c-.19,0-.38-.02-.56-.06-.18-.04-.34-.09-.47-.15-.08-.04-.13-.08-.17-.14-.03-.06-.04-.12-.04-.17,0-.06.03-.11.06-.15.04-.04.08-.07.14-.08.06-.01.13,0,.2.04.13.06.27.11.41.14.14.03.28.05.42.05.19,0,.34-.03.44-.1.1-.07.15-.17.15-.28,0-.08-.03-.15-.09-.2-.06-.05-.14-.09-.25-.11l-.56-.11c-.23-.04-.4-.13-.53-.26-.12-.13-.18-.3-.18-.49,0-.18.05-.34.15-.49.11-.15.26-.27.46-.36.2-.09.45-.13.74-.13.15,0,.3.02.47.06.17.04.32.09.44.16.07.04.12.09.15.15.03.06.04.11.02.17,0,.05-.03.1-.07.14-.04.04-.09.06-.15.07s-.13,0-.2-.05c-.1-.06-.21-.1-.34-.13s-.25-.04-.37-.04c-.2,0-.35.04-.46.11-.11.07-.16.17-.16.29,0,.07.02.13.07.19.05.05.12.09.23.11l.56.11c.25.05.43.14.56.27.13.12.2.28.2.48,0,.31-.12.55-.36.72-.23.17-.54.25-.93.25ZM88.47,21.69c-.1,0-.17-.02-.23-.07-.05-.04-.08-.1-.09-.17,0-.07.02-.14.07-.22l.58-.94-.05.31-.71-2.52c-.03-.1-.03-.19-.01-.26.02-.08.06-.14.12-.19.07-.04.15-.07.24-.07.11,0,.19.03.24.08.06.05.1.14.13.26l.49,1.99h-.19l1.2-2.06c.06-.1.12-.16.18-.2.06-.04.14-.07.24-.07s.17.02.23.07c.06.04.09.1.09.17,0,.07-.01.14-.06.23l-2.06,3.38c-.06.1-.12.16-.18.2-.06.04-.14.07-.24.07ZM91.1,20.59c-.14,0-.25-.04-.34-.13-.08-.08-.12-.19-.12-.32s.04-.23.12-.31.2-.13.34-.13.25.04.33.13c.08.08.12.18.12.31s-.04.24-.12.32c-.08.08-.19.13-.33.13Z"/>
  <path class="cls-1" d="M10.65,14.08c-.21,0-.43-.02-.66-.05-.22-.03-.44-.07-.64-.12s-.39-.12-.55-.2c-.14-.07-.24-.15-.3-.26-.06-.11-.08-.23-.06-.35s.06-.23.13-.32c.07-.1.17-.16.29-.19.12-.04.25-.02.41.05.2.09.42.16.67.21.25.05.48.08.7.08.34,0,.58-.04.72-.13.14-.09.21-.2.21-.34,0-.12-.05-.21-.15-.28-.09-.07-.26-.13-.51-.18l-.91-.19c-.5-.1-.87-.28-1.12-.54-.24-.26-.37-.58-.37-.99,0-.27.05-.51.16-.72.11-.22.27-.41.48-.56.21-.15.45-.27.73-.35.29-.09.6-.13.95-.13.27,0,.54.03.82.09.28.06.52.14.73.26.12.06.21.15.26.25.05.11.07.22.06.34-.01.11-.05.21-.12.3-.07.09-.16.15-.28.18-.11.03-.25,0-.41-.06-.15-.07-.32-.11-.52-.15-.19-.04-.37-.05-.55-.05-.19,0-.36.02-.49.07-.14.04-.24.1-.31.18-.07.08-.1.18-.1.28s.04.2.13.28c.09.07.26.13.51.18l.91.19c.5.11.88.28,1.13.53.25.25.37.56.37.96,0,.27-.05.51-.16.72s-.27.4-.47.55c-.2.15-.45.26-.73.34-.29.08-.61.12-.97.12ZM14.28,15.44c-.22,0-.39-.06-.51-.18-.12-.12-.18-.29-.18-.51v-3.91c0-.22.06-.39.17-.51.12-.12.29-.18.51-.18s.39.06.51.18c.12.12.18.29.18.51v.44l-.09-.38c.07-.23.22-.41.45-.55.23-.14.5-.21.8-.21.33,0,.62.08.87.24.25.16.45.38.59.67.14.29.21.64.21,1.06s-.07.75-.21,1.05c-.14.3-.34.52-.59.68-.25.16-.54.24-.87.24-.29,0-.54-.07-.77-.2-.23-.13-.38-.31-.46-.52h.09v1.39c0,.22-.06.4-.19.51-.12.12-.29.18-.52.18ZM15.69,13.07c.14,0,.26-.03.37-.1.11-.07.2-.18.26-.31.06-.14.09-.33.09-.55,0-.34-.07-.59-.2-.74-.14-.15-.31-.23-.52-.23-.14,0-.27.03-.37.1s-.2.17-.26.31c-.06.14-.09.32-.09.55,0,.34.07.58.2.74.14.15.31.23.52.23ZM19.89,14.08c-.5,0-.87-.13-1.11-.39-.23-.27-.35-.66-.35-1.19v-3.28c0-.22.06-.4.18-.51.12-.12.29-.18.51-.18s.4.06.52.18c.12.12.19.29.19.51v3.23c0,.19.04.33.11.41.08.09.18.13.3.13.04,0,.07,0,.11,0,.04-.01.09-.02.13-.02.09,0,.15.03.2.1.05.07.07.2.07.41,0,.18-.04.31-.11.41-.07.09-.19.14-.34.17-.04,0-.1.01-.18.02-.08.01-.15.02-.22.02ZM21.83,14.06c-.22,0-.39-.06-.51-.19s-.18-.31-.18-.55v-2.42c0-.24.06-.42.18-.55s.29-.19.51-.19.4.06.52.19c.12.13.19.31.19.55v2.42c0,.24-.06.42-.18.55-.12.13-.29.19-.52.19ZM21.83,9.61c-.24,0-.43-.06-.57-.17-.13-.11-.2-.28-.2-.49s.07-.37.2-.48c.14-.11.33-.17.57-.17s.45.06.58.17c.13.11.2.27.2.48s-.07.38-.2.49c-.13.11-.32.17-.58.17ZM25.36,14.08c-.39,0-.71-.06-.97-.18-.25-.12-.44-.29-.56-.53-.12-.24-.19-.54-.19-.9v-1.25h-.27c-.17,0-.3-.04-.39-.13-.09-.09-.13-.21-.13-.38s.04-.29.13-.37c.09-.09.22-.13.39-.13h.27v-.47c0-.22.06-.4.18-.51.12-.12.29-.18.52-.18s.4.06.52.18c.12.12.18.29.18.51v.47h.64c.17,0,.3.04.39.13.09.08.14.2.14.37s-.05.29-.14.38c-.09.09-.22.13-.39.13h-.64v1.2c0,.19.04.33.13.42.09.09.24.13.44.13.07,0,.14,0,.21-.02.07-.02.13-.02.19-.02.08,0,.15.02.2.08.05.05.08.17.08.36,0,.15-.02.28-.07.39-.05.1-.13.18-.25.22-.07.03-.17.05-.3.06-.12.02-.23.03-.3.03ZM28.73,14.08c-.42,0-.79-.06-1.1-.19-.31-.13-.55-.31-.73-.54-.17-.23-.25-.51-.25-.82,0-.17.02-.33.07-.48.05-.15.12-.28.22-.41.1-.13.21-.24.34-.34.14-.1.28-.2.44-.28l.27-.14-.21.26c-.2-.18-.35-.37-.45-.57-.1-.21-.15-.42-.15-.64,0-.28.07-.52.21-.73.15-.21.35-.38.6-.5.26-.12.56-.18.91-.18.46,0,.83.12,1.1.35.28.23.41.54.41.93,0,.2-.04.4-.12.57-.08.18-.2.34-.36.5-.16.15-.37.28-.62.4v-.26l1.17,1.11h-.3c.06-.09.11-.19.16-.3.05-.11.09-.22.12-.34.04-.12.07-.24.09-.37.04-.17.11-.3.2-.39s.23-.13.41-.13c.19,0,.33.05.42.15.1.1.13.25.1.44-.03.22-.08.43-.15.63-.07.2-.15.39-.24.57s-.2.34-.31.49v-.3l.66.61c.15.13.22.26.22.4,0,.14-.05.25-.16.34-.1.09-.25.14-.44.14-.17,0-.3-.03-.41-.09-.1-.07-.21-.16-.34-.27l-.31-.31h.3c-.25.21-.53.38-.84.5-.31.12-.62.18-.95.18ZM28.83,13.05c.19,0,.36-.03.52-.1.15-.07.3-.17.44-.31l-.04.31-1.55-1.46h.59s-.2.11-.2.11c-.12.06-.22.13-.3.21-.08.08-.15.17-.19.27-.04.1-.06.21-.06.33,0,.19.07.35.21.46s.34.17.59.17ZM28.92,9.4c-.15,0-.26.04-.34.13-.08.09-.12.2-.12.34,0,.08.01.16.04.23.03.07.08.15.14.23.07.08.16.17.27.28h-.28c.19-.09.33-.17.44-.25.11-.08.19-.16.23-.24.05-.09.08-.18.08-.29,0-.14-.04-.25-.12-.32-.08-.08-.18-.11-.32-.11ZM35.54,14.08c-.63,0-1.17-.11-1.61-.34-.44-.23-.77-.55-1-.96-.23-.41-.34-.9-.34-1.45,0-.43.07-.81.2-1.16.14-.35.34-.64.6-.89.26-.25.58-.44.95-.57.38-.13.81-.2,1.29-.2.26,0,.53.03.8.08.27.05.54.14.8.27.14.06.23.15.27.26.05.11.07.22.05.34-.02.12-.06.23-.13.33-.07.1-.16.16-.28.2-.12.03-.25.01-.41-.05-.16-.07-.33-.13-.51-.16-.18-.04-.37-.06-.58-.06-.35,0-.64.06-.87.18-.23.12-.4.3-.52.54s-.17.53-.17.88c0,.52.13.91.39,1.18.26.27.65.4,1.16.4.16,0,.33-.02.51-.05.19-.03.37-.07.56-.13l-.27.53v-1.31h-.55c-.18,0-.31-.04-.41-.13-.09-.09-.14-.21-.14-.37s.05-.28.14-.36c.1-.09.24-.13.41-.13h1.16c.18,0,.32.05.41.15.1.09.15.23.15.41v1.69c0,.15-.03.28-.1.39-.06.11-.16.18-.3.23-.24.08-.51.15-.8.19-.29.05-.57.07-.86.07ZM40.42,14.08c-.43,0-.8-.08-1.12-.24s-.56-.39-.74-.68c-.18-.3-.27-.65-.27-1.05,0-.31.05-.58.15-.82.1-.25.24-.45.43-.62.19-.17.41-.3.67-.39.26-.09.55-.14.87-.14.43,0,.8.08,1.12.24s.56.39.73.68c.18.29.27.64.27,1.05,0,.3-.05.57-.15.82-.1.25-.24.45-.43.63-.18.17-.41.3-.67.39-.26.09-.55.13-.87.13ZM40.42,13.07c.14,0,.27-.03.37-.1.11-.07.19-.18.25-.31.06-.14.09-.33.09-.55,0-.34-.07-.59-.2-.74-.14-.15-.31-.23-.52-.23-.14,0-.27.03-.37.1s-.2.17-.26.31c-.06.14-.09.32-.09.55,0,.34.07.58.2.74.14.15.31.23.52.23Z"/>
</svg>